<svg width="1140" height="300" viewBox="0 0 1140 300" fill="none" xmlns="http://www.w3.org/2000/svg">
<path d="M666.104 275.691H730V300H410V275.691H470.723L496.079 178.458H640.747L666.104 275.691ZM622.786 109.584H514.04L542.617 0H594.209L622.786 109.584Z" fill="white"/>
<path d="M1076.1 275.691H1140V300H820V275.691H880.723L906.079 178.458H1050.75L1076.1 275.691ZM1032.79 109.584H924.04L952.617 0H1004.21L1032.79 109.584Z" fill="white"/>
<path d="M256.104 275.691H320V300H0V275.691H60.7227L86.0791 178.458H230.747L256.104 275.691ZM212.786 109.584H104.04L132.617 0H184.209L212.786 109.584Z" fill="white"/>
</svg>
