<svg width="440" height="440" viewBox="0 0 440 440" fill="none" xmlns="http://www.w3.org/2000/svg">
<g clip-path="url(#clip0_398_928)">
<rect width="440" height="440" fill="black"/>
<path d="M-13.0816 600.041L56.8782 507.957C84.949 514.322 113.537 509.081 142.641 492.237C171.893 474.957 201.292 448.84 230.836 413.886C265.902 372.397 289.835 332.7 302.635 294.794C315.711 256.561 313.96 230.438 297.381 216.426C281.568 203.061 257.378 205.297 224.811 223.135C192.116 240.865 158.512 270.148 123.997 310.983L96.5643 287.796C113.965 263.671 128.421 239.766 139.933 216.082C157.684 179.56 158.589 154.562 142.648 141.089C130.023 130.418 110.317 132.524 83.5278 147.405C56.739 162.286 28.7106 187.041 -0.557407 221.669C-29.5493 255.971 -49.5009 288.112 -60.4122 318.093C-71.3235 348.075 -71.1236 373.446 -59.8126 394.207L-140.484 477.237C-154.455 446.947 -151.6 407.357 -131.919 358.464C-112.367 309.464 -78.5685 256.543 -30.5247 199.701C2.60893 160.499 36.4351 127.204 70.9539 99.8139C105.345 72.3164 135.533 54.7071 161.516 46.986C187.776 38.9383 207.283 40.3038 220.035 51.0824C232.15 61.322 236.14 78.9758 232.005 104.044C227.87 129.112 214.93 160.459 193.185 198.085C232.906 158.85 268.763 132.592 300.759 119.311C332.626 105.922 357.614 106.88 375.723 122.186C400.208 142.881 401.666 183.317 380.099 243.496C358.404 303.566 318.012 368.556 258.924 438.466C205.634 501.515 153.985 547.749 103.977 577.169C54.2451 606.262 15.2256 613.886 -13.0816 600.041Z" fill="white"/>
</g>
<defs>
<clipPath id="clip0_398_928">
<rect width="440" height="440" fill="white"/>
</clipPath>
</defs>
</svg>
